{
  "asset": {
    "generator": "Khronos glTF Blender I/O v1.8.19",
    "version": "2.0"
  },
  "scene": 0,
  "scenes": [
    {
      "name": "Scene",
      "nodes": [
        5
      ]
    }
  ],
  "nodes": [
    {
      "mesh": 0,
      "name": "Lapras_0"
    },
    {
      "children": [
        0
      ],
      "name": "Lapras"
    },
    {
      "name": "Sun.001"
    },
    {
      "children": [
        2
      ],
      "name": "Sun",
      "rotation": [
        0.308033287525177,
        0.05472639203071594,
        0.751534104347229,
        0.5807900428771973
      ],
      "scale": [
        1,
        1,
        1.0000028610229492
      ],
      "translation": [
        4.076250076293945,
        -10.487420082092285,
        19.275789260864258
      ]
    },
    {
      "children": [
        1,
        3
      ],
      "name": "Root"
    },
    {
      "children": [
        4
      ],
      "name": "Sketchfab_model",
      "rotation": [
        -0.7071068286895752,
        0,
        0,
        0.7071068286895752
      ]
    }
  ],
  "materials": [
    {
      "doubleSided": true,
      "name": "Body",
      "pbrMetallicRoughness": {
        "baseColorTexture": {
          "index": 0
        },
        "metallicFactor": 0,
        "roughnessFactor": 0.6000000238418579
      }
    }
  ],
  "meshes": [
    {
      "name": "Lapras_0",
      "primitives": [
        {
          "attributes": {
            "POSITION": 0,
            "NORMAL": 1,
            "TEXCOORD_0": 2
          },
          "indices": 3,
          "material": 0
        }
      ]
    }
  ],
  "textures": [
    {
      "sampler": 0,
      "source": 0
    }
  ],
  "images": [
    {
      "name": "Body_baseColor",
      "uri": "Lapras_img0.png"
    }
  ],
  "accessors": [
    {
      "bufferView": 0,
      "componentType": 5126,
      "count": 42695,
      "max": [
        4.401040077209473,
        4.063930034637451,
        6.556009769439697
      ],
      "min": [
        -4.401040077209473,
        -4.355909824371338,
        -0.24587999284267426
      ],
      "type": "VEC3"
    },
    {
      "bufferView": 1,
      "componentType": 5126,
      "count": 42695,
      "type": "VEC3"
    },
    {
      "bufferView": 2,
      "componentType": 5126,
      "count": 42695,
      "type": "VEC2"
    },
    {
      "bufferView": 3,
      "componentType": 5123,
      "count": 241920,
      "type": "SCALAR"
    }
  ],
  "bufferViews": [
    {
      "buffer": 0,
      "byteLength": 512340,
      "byteOffset": 0
    },
    {
      "buffer": 0,
      "byteLength": 512340,
      "byteOffset": 512340
    },
    {
      "buffer": 0,
      "byteLength": 341560,
      "byteOffset": 1024680
    },
    {
      "buffer": 0,
      "byteLength": 483840,
      "byteOffset": 1366240
    }
  ],
  "samplers": [
    {
      "magFilter": 9729,
      "minFilter": 9987
    }
  ],
  "buffers": [
    {
      "uri": "Lapras.bin",
      "byteLength": 1850080
    }
  ]
}